<svg width="64.000000" height="64.000000" viewBox="0 0 64 64" fill="none" xmlns="http://www.w3.org/2000/svg" xmlns:xlink="http://www.w3.org/1999/xlink">
	<desc>
			Created with Pixso.
	</desc>
	<path id="矢量 1" d="M60 0L4 0C1.79086 0 0 1.79086 0 4L0 60C0 62.2091 1.79086 64 4 64L60 64C62.2091 64 64 62.2091 64 60L64 4C64 1.79086 62.2091 0 60 0ZM5.50284 49.2166C13.129 44.8835 18.8568 38.7851 24.9877 32.5957C28.5081 29.0328 30.8908 24.2024 34.6421 21.0297C38.2779 17.9544 42.9248 16.2521 46.3512 12.9086C40.7377 18.4061 36.659 25.1031 30.6502 30.3332C34.5896 29.1533 38.8516 27.9124 42.4697 25.9032C39.9203 27.3776 37.2019 29.6033 34.2553 31.0223C32.1911 32.017 29.584 32.9402 27.6855 34.065C24.981 35.6644 21.8798 38.8598 20.131 41.3856C24.4381 40.2771 28.5309 40.1049 32.6462 38.0731C27.9457 42.6857 22.1204 43.6024 16.3926 45.9787C13.1745 47.3116 10.4178 49.5546 7.08916 50.8223C14.0261 51.6024 21.5548 50.7476 28.2155 48.8328C41.9952 44.8703 50.1869 30.2228 50.9347 16.5632C50.9772 15.7917 51.0018 14.9949 51.0268 14.1846C51.1511 10.1598 51.2857 5.79918 53.675 2.53322C47.879 8.00414 38.9949 9.11584 31.9116 12.1683C23.3622 15.8578 14.101 23.2142 10.2944 31.926C9.00061 34.8776 8.42847 38.0536 7.68732 41.1678C7.42406 42.2632 6.30247 48.7614 5.50284 49.2166ZM4.50902 49.7529L5.75658 49.7529L5.75658 58.8789L10.8118 58.8789L10.8118 60L4.50902 60L4.50902 49.7529ZM51.6637 51.4312C51.5675 51.4312 51.4773 51.4152 51.3932 51.3832C51.2882 51.3432 51.1926 51.2783 51.1066 51.1885C51.0174 51.0926 50.9542 50.9883 50.9171 50.8753C50.8907 50.7949 50.8775 50.7102 50.8775 50.6211C50.8775 50.5237 50.893 50.4317 50.924 50.3454C50.9617 50.2399 51.0226 50.1427 51.1066 50.0537C51.1943 49.9608 51.2919 49.8942 51.3993 49.8539C51.4817 49.8231 51.5698 49.8076 51.6637 49.8076C51.7794 49.8076 51.8857 49.829 51.9825 49.8719C52.0724 49.9117 52.1541 49.97 52.2276 50.0469C52.2993 50.1196 52.3544 50.1996 52.3929 50.2869C52.4377 50.3884 52.4601 50.4998 52.4601 50.6211C52.4601 50.7034 52.4483 50.7819 52.4248 50.8568C52.387 50.9769 52.319 51.0874 52.2208 51.1885C52.1288 51.2832 52.027 51.3501 51.9155 51.3894C51.8365 51.4172 51.7525 51.4312 51.6637 51.4312ZM29.3177 52.5659C29.8733 52.5659 30.367 52.6814 30.799 52.9125C30.8542 52.942 30.9086 52.9735 30.9617 53.0068C31.1784 53.1419 31.3718 53.299 31.5418 53.4783C31.7419 53.6893 31.9097 53.9309 32.0452 54.2031C32.0665 54.2455 32.0869 54.2883 32.1064 54.3314C32.3178 54.8008 32.4246 55.3202 32.4246 55.8848C32.4246 56.1445 32.4064 56.3826 32.3699 56.5991L27.1336 56.5991C27.1815 57.4285 27.4196 58.0472 27.848 58.4551C27.9829 58.5829 28.1291 58.6906 28.2865 58.7781C28.6286 58.9683 29.0236 59.0635 29.4715 59.0635C29.9445 59.0635 30.3412 58.9529 30.6617 58.7319C30.8923 58.5727 31.0835 58.3562 31.2352 58.0825L32.1478 58.5986C32.0874 58.7585 32.0101 58.9066 31.9159 59.0431C31.7186 59.3289 31.4473 59.5636 31.1019 59.7471C31.0173 59.7922 30.9312 59.8335 30.8435 59.8711C30.4038 60.0596 29.9236 60.1538 29.4031 60.1538C28.9188 60.1538 28.4663 60.0719 28.0456 59.9082C27.8984 59.8508 27.755 59.7835 27.6155 59.7061C27.457 59.6177 27.3082 59.5172 27.1692 59.4046C26.8389 59.137 26.5638 58.8012 26.3441 58.397C26.0319 57.8228 25.8758 57.1346 25.8758 56.3325C25.8758 55.5578 26.0319 54.8856 26.3441 54.3159C26.5806 53.8842 26.8774 53.5304 27.2344 53.2544C27.3484 53.1663 27.4688 53.0859 27.595 53.0137C27.7883 52.9036 27.9883 52.8138 28.1952 52.7444C28.5494 52.6254 28.9235 52.5659 29.3177 52.5659ZM39.8475 52.5659C40.4415 52.5659 40.9573 52.6968 41.3948 52.9585C41.5615 53.0582 41.7168 53.1768 41.8607 53.3145C41.9318 53.3822 41.9982 53.4539 42.0597 53.5295C42.4509 54.0107 42.6468 54.6513 42.6468 55.4507L42.6468 60L41.5975 60C41.5679 59.5238 41.5485 59.2161 41.5394 59.0771C41.4313 59.2481 41.3051 59.399 41.1607 59.5299C41.0068 59.6695 40.8322 59.7863 40.637 59.8804C40.2588 60.0627 39.827 60.1538 39.3416 60.1538C38.9347 60.1538 38.5511 60.089 38.1909 59.9593C38.1376 59.9401 38.0848 59.9195 38.0325 59.8975C37.762 59.782 37.5275 59.629 37.329 59.4385C37.2298 59.3433 37.1396 59.2388 37.0584 59.125C37.0165 59.0657 36.9782 59.0044 36.9436 58.9411C36.7787 58.6396 36.6961 58.293 36.6961 57.9014C36.6961 57.5362 36.7711 57.2103 36.9212 56.9236C37.067 56.6451 37.2836 56.4036 37.5711 56.1992C38.1544 55.7845 38.9075 55.5771 39.8304 55.5771C40.3545 55.5771 40.8968 55.6467 41.4574 55.7856L41.4574 55.6592C41.4574 54.9779 41.3195 54.472 41.0438 54.1416C40.9976 54.0858 40.9474 54.0348 40.8932 53.9884C40.6239 53.7578 40.256 53.6426 39.7894 53.6426C39.3428 53.6426 38.9691 53.736 38.6683 53.9229C38.3698 54.1097 38.118 54.3854 37.9129 54.75L37.0037 54.2305C37.0725 54.0754 37.1548 53.9298 37.2506 53.7937C37.4659 53.4879 37.7493 53.2302 38.1009 53.0205C38.1852 52.9705 38.2715 52.9245 38.3597 52.8828C38.8056 52.6715 39.3015 52.5659 39.8475 52.5659ZM49.5901 57.9287C49.5901 58.2332 49.5343 58.5135 49.4228 58.7694C49.3741 58.8812 49.3148 58.9883 49.2449 59.0908C49.2117 59.1396 49.1766 59.1868 49.1395 59.2325C48.9222 59.4999 48.638 59.714 48.2878 59.8735C47.8777 60.0604 47.406 60.1538 46.8728 60.1538C46.1641 60.1538 45.5535 59.9954 45.0408 59.6787C44.7365 59.4907 44.4943 59.2614 44.3145 58.9907C44.1913 58.8053 44.0973 58.6006 44.0325 58.3765L44.9417 57.8569C45.0971 58.222 45.3125 58.5052 45.5877 58.7065C45.9257 58.9536 46.3541 59.0771 46.8728 59.0771C47.3308 59.0771 47.6897 58.9837 47.9495 58.7969C48.0744 58.7078 48.1696 58.6026 48.235 58.4813C48.3067 58.3483 48.3425 58.196 48.3425 58.0244C48.3425 57.8451 48.3029 57.6897 48.2236 57.5582C48.1921 57.5059 48.1542 57.4574 48.1101 57.4126C47.9574 57.2531 47.7672 57.1289 47.5393 57.04C47.3114 56.9512 46.9913 56.8464 46.5789 56.7256C46.0844 56.5843 45.6833 56.4487 45.3757 56.3188C45.2149 56.2498 45.0669 56.1639 44.9316 56.0612C44.8082 55.9674 44.6952 55.8596 44.593 55.7378C44.4032 55.4865 44.2717 55.1174 44.2717 54.7227C44.2717 54.4039 44.334 54.1152 44.4584 53.8563C44.5057 53.7579 44.562 53.6639 44.6272 53.5742C44.672 53.5126 44.7199 53.4537 44.7707 53.3975C44.9887 53.1567 45.2622 52.9661 45.5911 52.8257C45.9989 52.6525 46.4456 52.5659 46.9309 52.5659C47.5644 52.5659 48.1101 52.7061 48.5681 52.9863C48.8456 53.1561 49.0678 53.3635 49.2349 53.6086C49.3436 53.768 49.429 53.9434 49.491 54.1348L48.5818 54.6509C48.4986 54.4731 48.3922 54.3183 48.2624 54.1864C48.1609 54.0834 48.0452 53.9944 47.9153 53.9194C47.6213 53.7463 47.2738 53.6597 46.8728 53.6597C46.4626 53.6597 46.1334 53.7417 45.885 53.9058C45.7738 53.9789 45.6878 54.0668 45.6268 54.1697C45.5529 54.2945 45.5159 54.4412 45.5159 54.6099C45.5159 54.7595 45.5481 54.8907 45.6126 55.0035C45.6443 55.059 45.6839 55.1102 45.7312 55.1567C45.877 55.2957 46.057 55.4074 46.2712 55.4917C46.4854 55.576 46.7885 55.674 47.1804 55.7856C47.6954 55.9269 48.1112 56.0648 48.428 56.1992C48.5207 56.2386 48.6097 56.2842 48.6948 56.3361C48.9004 56.4614 49.0837 56.6231 49.2449 56.8213C49.4582 57.0975 49.5901 57.4878 49.5901 57.9287ZM57.2354 52.5659C57.8295 52.5659 58.3453 52.6968 58.7828 52.9585C58.9494 53.0582 59.1047 53.1768 59.2486 53.3145C59.3198 53.3822 59.3861 53.4539 59.4476 53.5295C59.8389 54.0107 60.0347 54.6513 60.0347 55.4507L60.0347 60L58.9854 60C58.9558 59.5238 58.9364 59.2161 58.9273 59.0771C58.8192 59.2481 58.693 59.399 58.5487 59.5299C58.3947 59.6695 58.2201 59.7863 58.025 59.8804C57.6467 60.0627 57.2149 60.1538 56.7296 60.1538C56.3227 60.1538 55.9391 60.089 55.5789 59.9593C55.5256 59.9401 55.4728 59.9195 55.4205 59.8975C55.15 59.782 54.9155 59.629 54.7169 59.4385C54.6178 59.3433 54.5276 59.2388 54.4464 59.125C54.4044 59.0657 54.3662 59.0044 54.3315 58.9411C54.1666 58.6396 54.0841 58.293 54.0841 57.9014C54.0841 57.5362 54.1591 57.2103 54.3091 56.9236C54.4549 56.6451 54.6716 56.4036 54.9591 56.1992C55.5424 55.7845 56.2955 55.5771 57.2183 55.5771C57.7424 55.5771 58.2847 55.6467 58.8453 55.7856L58.8453 55.6592C58.8453 54.9779 58.7074 54.472 58.4317 54.1416C58.3855 54.0858 58.3353 54.0348 58.2811 53.9884C58.0118 53.7578 57.6439 53.6426 57.1773 53.6426C56.7307 53.6426 56.357 53.736 56.0562 53.9229C55.7577 54.1097 55.5059 54.3854 55.3009 54.75L54.3917 54.2305C54.4605 54.0754 54.5428 53.9298 54.6386 53.7937C54.8538 53.4879 55.1372 53.2302 55.4888 53.0205C55.5731 52.9705 55.6594 52.9245 55.7476 52.8828C56.1935 52.6715 56.6895 52.5659 57.2354 52.5659ZM14.7435 55.4233L16.661 52.7334L18.0214 52.7334L15.3895 56.3462L18.0214 60L16.5653 60L14.6888 57.3135L12.7577 60L11.37 60L14.0292 56.4009L11.37 52.7334L12.8534 52.7334L14.7435 55.4233ZM24.0838 52.7334L25.3143 52.7334L21.9134 61.3159C21.6149 62.0724 21.2971 62.6113 20.9598 62.9326C20.63 63.2133 20.1134 63.4146 19.5448 63.4146C19.0028 63.4146 18.5659 63.2825 18.2339 63.0185L18.6629 62.0166C18.7655 62.1009 18.8988 62.1681 19.0628 62.2183C19.2269 62.2707 19.3875 62.2969 19.5448 62.2969C19.7055 62.2969 19.8525 62.2666 19.9859 62.2062C20.0926 62.1578 20.1905 62.09 20.2796 62.0029C20.4824 61.807 20.7 61.4378 20.9325 60.8955L21.2811 60.0854L18.2596 52.7334L19.6302 52.7334L21.9134 58.5713L24.0838 52.7334ZM52.2516 60L51.0587 60L51.0587 52.7334L52.2516 52.7334L52.2516 60ZM29.2767 53.6597C28.9898 53.6597 28.7234 53.7099 28.4774 53.8102C28.2741 53.8932 28.0848 54.0105 27.9095 54.1621C27.5465 54.4957 27.2734 55.0108 27.1746 55.6318L31.1395 55.6318C31.1111 55.0338 30.9416 54.5644 30.631 54.2235C30.525 54.1139 30.3669 53.9774 30.2404 53.9024C29.9671 53.7406 29.6458 53.6597 29.2767 53.6597ZM41.4574 56.7803C40.8695 56.6299 40.3328 56.5547 39.8475 56.5547C39.2391 56.5547 38.7697 56.672 38.4393 56.9067C38.2906 57.0113 38.1754 57.135 38.0936 57.2779C37.9937 57.4525 37.9437 57.6558 37.9437 57.8877C37.9437 58.1357 37.9993 58.349 38.1106 58.5276C38.1752 58.6313 38.2586 58.7234 38.3607 58.8037C38.6401 59.0191 39.009 59.1318 39.4544 59.1318C39.8314 59.1318 40.1711 59.0568 40.4735 58.9066C40.6134 58.8371 40.7455 58.7516 40.8695 58.6499C41.0069 58.5365 41.1202 58.408 41.2095 58.2646C41.3747 57.999 41.4574 57.6819 41.4574 57.3135L41.4574 56.7803ZM58.8453 56.7803C58.2574 56.6299 57.7208 56.5547 57.2354 56.5547C56.627 56.5547 56.1576 56.672 55.8272 56.9067C55.6786 57.0113 55.5634 57.135 55.4816 57.2779C55.3816 57.4525 55.3316 57.6558 55.3316 57.8877C55.3316 58.1357 55.3873 58.349 55.4986 58.5276C55.5632 58.6313 55.6465 58.7234 55.7486 58.8037C56.028 59.0191 56.397 59.1318 56.8424 59.1318C57.2193 59.1318 57.559 59.0568 57.8614 58.9066C58.0014 58.8371 58.1334 58.7516 58.2574 58.6499C58.3948 58.5365 58.5082 58.408 58.5974 58.2646C58.7626 57.999 58.8453 57.6819 58.8453 57.3135L58.8453 56.7803ZM34.484 60.1538C34.3924 60.1538 34.3062 60.139 34.2255 60.1095C34.1174 60.0699 34.019 60.0037 33.9303 59.9111C33.8441 59.8185 33.7822 59.7175 33.7447 59.6082C33.7157 59.5239 33.7012 59.4346 33.7012 59.3403C33.7012 59.2213 33.7229 59.1116 33.7664 59.0113C33.8044 58.9235 33.859 58.8429 33.9303 58.7695C34.0173 58.6799 34.1137 58.6155 34.2194 58.5762C34.3019 58.5456 34.3901 58.5303 34.484 58.5303C34.5972 58.5303 34.7016 58.5508 34.7972 58.5918C34.8902 58.6316 34.9749 58.6909 35.0513 58.7695C35.1257 58.845 35.1822 58.9281 35.2209 59.0188C35.2628 59.117 35.2838 59.2242 35.2838 59.3403C35.2838 59.4588 35.2624 59.5682 35.2196 59.6685C35.181 59.7591 35.1249 59.8423 35.0513 59.918C34.9769 59.9935 34.8945 60.0509 34.8042 60.0902C34.7067 60.1326 34.5999 60.1538 34.484 60.1538Z" fill-rule="evenodd" fill="#30B224"/>
	<defs/>
</svg>
