<svg width="64.000000" height="65.731201" viewBox="0 0 64 65.7312" fill="none" xmlns="http://www.w3.org/2000/svg" xmlns:xlink="http://www.w3.org/1999/xlink">
	<desc>
			Created with Pixso.
	</desc>
	<path id="矢量 1" d="M17 0L47 0C56.3888 0 64 7.61116 64 17L64 47C64 56.3888 56.3888 64 47 64L17 64C7.61116 64 0 56.3888 0 47L1.90735e-06 17C1.90735e-06 7.61116 7.61116 0 17 0Z" fill-rule="evenodd" fill="#07A15F"/>
	<path id="矢量 1" d="M41.1516 27.0431L34.7571 27.0431C34.5362 27.0431 34.3574 27.2222 34.3574 27.4428L34.3574 33.8373C34.3574 34.0581 34.5362 34.237 34.7571 34.237L41.1516 34.237C41.3722 34.237 41.5513 34.0581 41.5513 33.8373L41.5513 27.4428C41.5513 27.2222 41.3722 27.0431 41.1516 27.0431ZM40.7518 33.4376L35.1568 33.4376L35.1568 27.8426L40.7518 27.8426L40.7518 33.4376ZM32.4103 27.0431L26.0158 27.0431C25.7952 27.0431 25.6161 27.2222 25.6161 27.4428L25.6161 33.8373C25.6161 34.0581 25.7952 34.237 26.0158 34.237L32.4103 34.237C32.6311 34.237 32.81 34.0581 32.81 33.8373L32.81 27.4428C32.81 27.2222 32.6311 27.0431 32.4103 27.0431ZM32.0106 33.4376L26.4155 33.4376L26.4155 27.8426L32.0106 27.8426L32.0106 33.4376ZM32.4103 18.2579L26.0158 18.2579C25.7952 18.2579 25.6161 18.4367 25.6161 18.6576L25.6161 25.0518C25.6161 25.2727 25.7952 25.4516 26.0158 25.4516L32.4103 25.4516C32.6311 25.4516 32.81 25.2727 32.81 25.0518L32.81 18.6576C32.81 18.4367 32.6311 18.2579 32.4103 18.2579ZM32.0106 24.6521L26.4155 24.6521L26.4155 19.0573L32.0106 19.0573L32.0106 24.6521ZM42.858 21.4247L38.6698 17.2365C38.5949 17.1616 38.4931 17.1194 38.3872 17.1194C38.2811 17.1194 38.1796 17.1616 38.1044 17.2365L33.9163 21.4247C33.7602 21.5808 33.7602 21.834 33.9163 21.9901L38.1044 26.1783C38.1826 26.2562 38.2849 26.2954 38.3872 26.2954C38.4894 26.2954 38.5917 26.2562 38.6698 26.1783L42.858 21.9901C42.9329 21.9152 42.9751 21.8134 42.9751 21.7075C42.9751 21.6014 42.9329 21.4997 42.858 21.4247ZM38.3872 25.3303L34.7643 21.7075L38.3872 18.0846L42.01 21.7075L38.3872 25.3303Z" fill-rule="nonzero" fill="#9CF6BA" fill-opacity="0.388506"/>
	<linearGradient id="paint_linear_2_172_0" x1="32.000000" y1="0.000000" x2="32.000000" y2="65.731201" gradientUnits="userSpaceOnUse">
		<stop offset="0.350412" stop-color="#F8F8F8" stop-opacity="0.796078"/>
		<stop offset="0.502398" stop-color="#08D499"/>
		<stop offset="0.908397" stop-color="#6EF797"/>
		<stop offset="0.997834" stop-color="#E8E8E8" stop-opacity="0.643137"/>
	</linearGradient>
	<path id="矢量 1" d="M48.1292 0.79834L53.2341 0.79834L31.8804 54.1724C30.3032 58.2536 28.6085 61.2004 26.7961 63.0127C24.9838 64.825 22.459 65.7312 19.2217 65.7312C16.2749 65.7312 13.9507 65.0256 12.249 63.6145L14.1997 59.6301C14.7669 60.0728 15.5209 60.4464 16.4617 60.7507C17.4024 61.0689 18.3224 61.228 19.2217 61.228C21.1447 61.228 22.7564 60.5778 24.0569 59.2773C25.3712 57.9769 26.6785 55.6803 27.979 52.3877L30.7805 45.6018L12.6848 0.79834L18.2878 0.79834L33.333 39.397L48.1292 0.79834Z" fill-rule="nonzero" fill="url(#paint_linear_2_172_0)"/>
	<defs/>
</svg>
